# xmcd
#
# Track frame offsets: 
#        150
#        13481
#        28295
#        46304
#        59553
#        75552
#        97476
#        115749
#        128696
#        142127
#
# Disc length: 2170 seconds
#
# Revision: 0
# Processed by: cddbd v1.5.2PL0 Copyright (c) Steve Scherf et al.
# Submitted via: ExactAudioCopyFreeDBPlugin 1.0
#
DISCID=9508780a
DTITLE=Zach Edwards Band - Cowboy Crew
DYEAR=2007
DGENRE=Country
TTITLE0=You Look Better On Myspace
TTITLE1=Don't Hate The Player
TTITLE2=Git 'er Done
TTITLE3=Cowboy Crew
TTITLE4=Best Of Me
TTITLE5=Jokerz Wild
TTITLE6=Stallion Of Love
TTITLE7=Dry As A Bone
TTITLE8=Texas Women
TTITLE9=Cowboy Up
EXTD=
EXTT0=
EXTT1=
EXTT2=
EXTT3=
EXTT4=
EXTT5=
EXTT6=
EXTT7=
EXTT8=
EXTT9=
PLAYORDER=
